:FULLY-SPECIFIED
:FORCE-ALL-JOINTS-BE-3DOF
:DEGREES
81
root 9.09101 16.161 -25.3476 5.22382 -6.37891 1.91142
lfemur -14.7296 5.51668 -24.0473
ltibia 23.4719 -0 0
lfoot -11.6526 5.10821 0.0722347
ltoes -4.25004 0 0
rfemur -13.2401 4.25564 13.0312
rtibia 44.3683 -0 0
rfoot -0.733344 -10.7667 0.24293
rtoes -7.80751 0 0
lowerback -6.16239 -0.745104 -3.54301
upperback -1.97462 -0.820927 2.44151
thorax 1.56952 -0.415374 4.37156
lowerneck -21.5209 -4.51486 -12.2136
upperneck 18.7647 -5.25116 12.3605
head 10.2146 -1.89847 5.67624
lclavicle -2.91916e-14 1.04802e-14 1.06019e-30
lhumerus -36.8194 -11.001 91.2847
lradius 26.933 -0 0
lwrist 0.639114 0 0
lhand -1.29283 -19.3979 0.188963
lfingers 7.12502 -0 0
lthumb 24.3387 8.93968 0.141372
rclavicle -2.91916e-14 1.04802e-14 1.06019e-30
rhumerus -44.3542 11.8131 -88.9245
rradius 36.7021 -0 0
rwrist -19.2615 0 0
rhand -29.7136 -24.7849 -0.00314744
rfingers 7.12502 -0 0
rthumb -3.04086 -54.7429 -0.00304723
82
root 9.09456 16.1578 -25.2245 5.21476 -6.07948 1.99678
lfemur -13.9673 5.38404 -24.1088
ltibia 22.9131 -0 0
lfoot -11.7418 4.992 0.074227
ltoes -4.27841 0 0
rfemur -13.9125 4.48092 12.8791
rtibia 43.931 -0 0
rfoot -1.30253 -10.8282 0.249673
rtoes -8.14309 0 0
lowerback -6.21436 -0.815726 -3.61518
upperback -1.9561 -0.908776 2.43335
thorax 1.62944 -0.461105 4.39433
lowerneck -21.4738 -4.53521 -12.2383
upperneck 18.8278 -5.27537 12.3308
head 10.2317 -1.9164 5.66761
lclavicle -3.08601e-14 1.05714e-14 1.08942e-30
lhumerus -36.6244 -11.359 91.4203
lradius 27.2712 -0 0
lwrist 0.884874 0 0
lhand -1.52261 -19.516 0.194179
lfingers 7.12502 -0 0
lthumb 24.1182 8.84759 0.145274
rclavicle -3.08601e-14 1.05714e-14 1.08942e-30
rhumerus -44.4127 11.7029 -88.7907
rradius 36.6327 -0 0
rwrist -19.2562 0 0
rhand -29.7223 -24.733 -0.00323421
rfingers 7.12502 -0 0
rthumb -3.04927 -54.6908 -0.00313125
83
root 9.09812 16.1545 -25.1015 5.20615 -5.78004 2.08204
lfemur -13.2051 5.25223 -24.1719
ltibia 22.3542 -0 0
lfoot -11.8311 4.87579 0.0760382
ltoes -4.30677 0 0
rfemur -14.5856 4.7044 12.7244
rtibia 43.4938 -0 0
rfoot -1.87173 -10.8897 0.255806
rtoes -8.47868 0 0
lowerback -6.26624 -0.886413 -3.68728
upperback -1.93756 -0.996622 2.42517
thorax 1.68933 -0.50686 4.41706
lowerneck -21.4267 -4.55553 -12.2631
upperneck 18.8908 -5.29956 12.301
head 10.2488 -1.93432 5.65897
lclavicle -3.25286e-14 1.06627e-14 1.11599e-30
lhumerus -36.43 -11.7174 91.5548
lradius 27.6093 -0 0
lwrist 1.13063 0 0
lhand -1.7524 -19.6342 0.198922
lfingers 7.12502 -0 0
lthumb 23.8976 8.75548 0.148822
rclavicle -3.25286e-14 1.06627e-14 1.11599e-30
rhumerus -44.4714 11.5929 -88.6568
rradius 36.5632 -0 0
rwrist -19.2508 0 0
rhand -29.731 -24.6811 -0.0033131
rfingers 7.12502 -0 0
rthumb -3.05768 -54.6388 -0.00320762
84
root 9.10167 16.1513 -24.9785 5.19799 -5.48059 2.16721
lfemur -12.4428 5.12126 -24.2369
ltibia 21.7954 -0 0
lfoot -11.9204 4.75957 0.0776684
ltoes -4.33513 0 0
rfemur -15.2596 4.92606 12.567
rtibia 43.0566 -0 0
rfoot -2.44093 -10.9513 0.261327
rtoes -8.81426 0 0
lowerback -6.31803 -0.957166 -3.75933
upperback -1.91901 -1.08447 2.41695
thorax 1.74921 -0.552638 4.43973
lowerneck -21.3796 -4.57584 -12.2879
upperneck 18.9539 -5.32371 12.2713
head 10.2658 -1.95225 5.65032
lclavicle -3.41971e-14 1.07539e-14 1.13991e-30
lhumerus -36.2362 -12.0763 91.6883
lradius 27.9475 -0 0
lwrist 1.37639 0 0
lhand -1.9822 -19.7524 0.203191
lfingers 7.12502 -0 0
lthumb 23.677 8.66336 0.152015
rclavicle -3.41971e-14 1.07539e-14 1.13991e-30
rhumerus -44.5304 11.483 -88.5228
rradius 36.4938 -0 0
rwrist -19.2454 0 0
rhand -29.7397 -24.6292 -0.0033841
rfingers 7.12502 -0 0
rthumb -3.06609 -54.5868 -0.00327636
